<?xml version="1.0" encoding="utf-8"?>
<!-- Generator: Adobe Illustrator 24.1.1, SVG Export Plug-In . SVG Version: 6.00 Build 0)  -->
<svg version="1.1" xmlns="http://www.w3.org/2000/svg" xmlns:xlink="http://www.w3.org/1999/xlink" x="0px" y="0px"
	 viewBox="0 0 323.78 319.46" style="enable-background:new 0 0 323.78 319.46;" xml:space="preserve">
<style type="text/css">
	.st0{fill:#F2F49D;stroke:#FFFFFF;stroke-miterlimit:10;}
	.st1{fill:none;}
	.st2{fill:#D83636;stroke:#FFFFFF;stroke-width:2;stroke-miterlimit:10;}
	.st3{fill:#877777;stroke:#FFFFFF;stroke-width:2;stroke-miterlimit:10;}
	.st4{fill:#F2F49D;stroke:#FFFFFF;stroke-width:2;stroke-miterlimit:10;}
	.st5{fill:#9BC8C9;stroke:#FFFFFF;stroke-width:2;stroke-miterlimit:10;}
	.st6{fill:#C6A1A1;stroke:#FFFFFF;stroke-width:2;stroke-miterlimit:10;}
	.st7{fill:#749293;stroke:#FFFFFF;stroke-width:2;stroke-miterlimit:10;}
	.st8{fill:#95B8BC;stroke:#FFFFFF;stroke-width:2;stroke-miterlimit:10;}
</style>
<g id="Capa_3">
	<circle class="st0" cx="161.89" cy="159.47" r="155.47"/>
</g>
<g id="Capa_2">
	<g>
		<g>
			<polygon class="st1" points="84.92,164.79 117.13,185.21 118.11,184.23 85.33,164.5 			"/>
			<polygon class="st1" points="76.27,156.94 76.96,170.01 76.96,170.01 76.27,156.94 			"/>
			<polyline class="st2" points="68.58,159.33 67.4,142.84 42.3,113.62 52.09,229.63 88.38,242.63 68.28,176.38 76.54,170.32 
				76.96,170.01 76.27,156.94 76.27,156.94 76.24,156.33 			"/>
			<polygon class="st2" points="119.72,260.8 88.51,243.06 88.38,242.63 52.09,229.63 104.47,273.2 120.62,260.96 121.16,260.92 
				120,260.96 			"/>
			<polygon class="st2" points="66.15,125.23 57.2,101.07 42.3,113.62 67.4,142.84 			"/>
			<polygon class="st3" points="150.45,138.74 139.46,138.81 134.65,152.2 129.17,156.94 108.88,156.94 99.31,148.26 98.56,147.58 
				76.24,156.33 76.27,156.94 76.96,170.01 84.46,164.5 85.33,164.5 85.33,164.5 118.11,184.23 152.1,150.5 152.38,150.5 
				152.42,150.7 152.91,150.7 152.87,150.5 			"/>
			<polygon class="st4" points="108.88,156.94 129.17,156.94 134.65,152.2 139.46,138.81 122.1,138.92 120.65,138.93 98.56,147.58 
				99.31,148.26 			"/>
			<polygon class="st5" points="91.95,69.16 34.04,29.79 81.31,78.14 			"/>
			<polygon class="st6" points="101.61,102.16 80.95,81.08 30.82,29.92 57.2,101.07 66.15,125.23 			"/>
			<polygon class="st1" points="238.86,164.79 206.65,185.21 205.66,184.23 238.45,164.5 			"/>
			<polygon class="st1" points="247.5,156.94 246.81,170.01 246.81,170.01 247.5,156.94 			"/>
			<polygon class="st2" points="194.83,40.68 161.95,40.68 161.82,40.68 128.95,40.68 80.95,81.08 101.61,102.16 128.87,84.42 
				161.82,84.42 161.95,84.42 194.91,84.42 222.17,102.16 242.83,81.08 			"/>
			<polyline class="st2" points="255.2,159.33 256.37,142.84 281.48,113.62 271.68,229.63 235.4,242.63 255.5,176.38 247.24,170.32 
				246.81,170.01 247.5,156.94 247.5,156.94 247.53,156.33 			"/>
			<polygon class="st2" points="204.06,260.8 235.27,243.06 235.4,242.63 271.68,229.63 219.31,273.2 203.15,260.96 202.61,260.92 
				203.78,260.96 			"/>
			<polygon class="st2" points="257.63,125.23 266.58,101.07 281.48,113.62 256.37,142.84 			"/>
			<polygon class="st3" points="173.33,138.74 184.32,138.81 189.12,152.2 194.6,156.94 214.9,156.94 224.47,148.26 225.21,147.58 
				247.53,156.33 247.5,156.94 246.81,170.01 239.31,164.5 238.45,164.5 238.45,164.5 205.66,184.23 171.67,150.5 171.39,150.5 
				171.36,150.7 170.86,150.7 170.91,150.5 			"/>
			<path class="st7" d="M222.17,102.16l-27.26-17.74h-32.95h-0.13h-32.95l-27.26,17.74l-35.46,23.07l1.26,17.61l1.18,16.49
				l29.98-11.75l22.09-8.65l1.46-0.01l17.36-0.11l10.99-0.07l-0.01-0.03l-0.02-0.12l11.47-0.2l11.47,0.2l-0.02,0.12l-0.01,0.03
				l10.99,0.07l17.36,0.11l1.46,0.01l22.09,8.65l29.98,11.75l1.18-16.49l1.26-17.61L222.17,102.16z M180.77,124.09l-13.44,9.96h-5
				h-0.38h-0.13h-0.38h-5l-13.44-9.96V110l13.44-9.96h5h0.38h0.13h0.38h5l13.44,9.96V124.09z"/>
			<polygon class="st5" points="247.24,170.32 246.81,170.01 239.31,164.5 238.45,164.5 205.66,184.23 171.67,150.5 171.39,150.5 
				171.36,150.7 170.86,150.7 161.95,150.7 161.82,150.7 152.91,150.7 152.42,150.7 152.38,150.5 152.1,150.5 118.11,184.23 
				85.33,164.5 84.46,164.5 76.96,170.01 76.54,170.32 68.28,176.38 88.38,242.63 88.51,243.06 119.72,260.8 120,260.96 
				121.16,260.92 161.82,260.96 161.82,260.96 161.89,260.96 161.95,260.96 161.95,260.96 202.61,260.92 203.78,260.96 
				204.06,260.8 235.27,243.06 235.4,242.63 255.5,176.38 			"/>
			<polygon class="st7" points="161.95,138.39 161.95,138.39 161.89,138.39 161.82,138.39 161.82,138.39 150.42,138.6 
				150.44,138.71 150.45,138.74 152.38,150.5 152.91,150.7 161.82,150.7 161.95,150.7 170.86,150.7 171.39,150.5 173.33,138.74 
				173.33,138.71 173.36,138.6 			"/>
			<path class="st4" d="M167.33,100.04h-5h-0.38h-0.13h-0.38h-5L143.01,110v14.09l13.44,9.96h5h0.38h0.13h0.38h5l13.44-9.96V110
				L167.33,100.04z M173.15,122.06l-9.57,7.09h-1.64h-0.13h-1.64l-9.57-7.09v-10.03l9.57-7.09h1.64h0.13h1.64l9.57,7.09V122.06z"/>
			<polygon class="st2" points="163.59,104.94 161.95,104.94 161.82,104.94 160.19,104.94 150.62,112.03 150.62,122.06 
				160.19,129.15 161.82,129.15 161.95,129.15 163.59,129.15 173.15,122.06 173.15,112.03 			"/>
			<polygon class="st5" points="231.82,69.16 289.74,29.79 242.46,78.14 			"/>
			<polygon class="st6" points="222.17,102.16 242.83,81.08 292.95,29.92 266.58,101.07 257.63,125.23 			"/>
		</g>
		<polygon class="st7" points="161.89,168.26 121.36,205.47 126.39,247.88 161.89,247.88 197.38,247.88 202.41,205.47 		"/>
		<line class="st8" x1="202.41" y1="205.47" x2="255.5" y2="176.38"/>
		<line class="st8" x1="121.36" y1="205.47" x2="68.28" y2="176.38"/>
	</g>
</g>
</svg>
